<?xml version="1.0" encoding="UTF-8" standalone="no"?>
<!-- Created with Inkscape (http://www.inkscape.org/) -->

<svg
   xmlns:dc="http://purl.org/dc/elements/1.1/"
   xmlns:cc="http://creativecommons.org/ns#"
   xmlns:rdf="http://www.w3.org/1999/02/22-rdf-syntax-ns#"
   xmlns:svg="http://www.w3.org/2000/svg"
   xmlns="http://www.w3.org/2000/svg"
   xmlns:sodipodi="http://sodipodi.sourceforge.net/DTD/sodipodi-0.dtd"
   xmlns:inkscape="http://www.inkscape.org/namespaces/inkscape"
   width="1000mm"
   height="700mm"
   viewBox="0 0 3543.307 2480.3149"
   id="svg2"
   version="1.1"
   inkscape:version="0.91 r13725"
   sodipodi:docname="Keicar-j4p4n.svg">
  <defs
     id="defs4" />
  <sodipodi:namedview
     id="base"
     pagecolor="#ffffff"
     bordercolor="#666666"
     borderopacity="1.0"
     inkscape:pageopacity="0.0"
     inkscape:pageshadow="2"
     inkscape:zoom="0.11215817"
     inkscape:cx="1573.4981"
     inkscape:cy="1057.9234"
     inkscape:document-units="px"
     inkscape:current-layer="g4517"
     showgrid="false"
     inkscape:window-width="1916"
     inkscape:window-height="1035"
     inkscape:window-x="4"
     inkscape:window-y="1"
     inkscape:window-maximized="1"
     fit-margin-top="0"
     fit-margin-left="0"
     fit-margin-right="0"
     fit-margin-bottom="0" />
  <metadata
     id="metadata7">
    <rdf:RDF>
      <cc:Work
         rdf:about="">
        <dc:format>image/svg+xml</dc:format>
        <dc:type
           rdf:resource="http://purl.org/dc/dcmitype/StillImage" />
        <dc:title></dc:title>
        <dc:creator>
          <cc:Agent>
            <dc:title>j4p4n</dc:title>
          </cc:Agent>
        </dc:creator>
        <cc:license
           rdf:resource="http://creativecommons.org/publicdomain/zero/1.0/" />
      </cc:Work>
      <cc:License
         rdf:about="http://creativecommons.org/publicdomain/zero/1.0/">
        <cc:permits
           rdf:resource="http://creativecommons.org/ns#Reproduction" />
        <cc:permits
           rdf:resource="http://creativecommons.org/ns#Distribution" />
        <cc:permits
           rdf:resource="http://creativecommons.org/ns#DerivativeWorks" />
      </cc:License>
    </rdf:RDF>
  </metadata>
  <g
     inkscape:label="Layer 1"
     inkscape:groupmode="layer"
     id="layer1"
     transform="translate(1453.9201,-174.5596)">
    <g
       id="g4478"
       transform="matrix(9,0,0,9,-1616.9903,-12295.441)">
      <g
         id="g4517"
         transform="translate(8.9159798,-11.887973)">
        <g
           id="g4583">
          <path
             sodipodi:nodetypes="cccccccc"
             inkscape:connector-curvature="0"
             id="path4374"
             d="m 85.687142,1478.8143 -8.089399,-2.4757 -7.715161,1.7848 -4.750002,0.6909 -0.777266,7.0531 4.249426,1.1733 c 0,0 4.348011,3.5831 10.559571,5.701 z"
             style="fill:#88aa00;fill-opacity:1;fill-rule:evenodd;stroke:#000000;stroke-width:3;stroke-linecap:round;stroke-linejoin:round;stroke-miterlimit:4;stroke-dasharray:none;stroke-opacity:1" />
          <path
             style="opacity:1;fill:#333333;fill-opacity:1;fill-rule:evenodd;stroke:#000000;stroke-width:3;stroke-linecap:round;stroke-linejoin:round;stroke-miterlimit:4;stroke-dasharray:none;stroke-opacity:1"
             d="m 62.4987,1555.8354 c -5.564228,-0.2314 -7.518777,0.2941 -12.72461,0.375 -9.809517,7e-4 -17.761607,22.3171 -17.761718,49.8457 -2.75e-4,27.5294 9.448899,46.853 19.258689,46.8537 5.310976,-0.52 6.846042,-0.3219 12.72461,-0.375 9.809518,-7e-4 16.264638,-19.3231 16.264747,-46.8518 2.73e-4,-27.5294 -7.951929,-49.8469 -17.761718,-49.8476 z"
             id="path4387"
             inkscape:connector-curvature="0"
             sodipodi:nodetypes="ccsccsc" />
          <path
             style="opacity:1;fill:#333333;fill-opacity:1;fill-rule:evenodd;stroke:#000000;stroke-width:3;stroke-linecap:round;stroke-linejoin:round;stroke-miterlimit:4;stroke-dasharray:none;stroke-opacity:1"
             d="m 366.92383,1549.6774 c -4.89101,-0.1827 -6.60908,0.2323 -11.18507,0.2961 -8.62266,5e-4 -15.61264,17.6224 -15.61273,39.3602 -2.5e-4,21.7383 8.30567,36.997 16.92859,36.9975 4.66841,-0.4106 6.01775,-0.2542 11.18507,-0.2961 8.62267,-6e-4 14.29679,-15.2583 14.29689,-36.996 2.4e-4,-21.7383 -6.98983,-39.3612 -15.61275,-39.3617 z"
             id="path4383"
             inkscape:connector-curvature="0"
             sodipodi:nodetypes="ccsccsc" />
          <path
             sodipodi:nodetypes="ccccccccccccccccccccccscccccc"
             inkscape:connector-curvature="0"
             id="path4356"
             d="m 77.947973,1487.1572 -24.560853,9.2753 -13.21365,13.2136 -8.80909,17.6182 -2.93637,32.3 2.93637,14.6819 199.67286,5.8727 42.5773,36.7046 74.87733,-14.6819 2.93636,-24.9591 0,-8.8091 5.81563,-3.7292 6.94449,-0.85 2.93637,-7.3409 1.46818,-4.4045 5.01097,-0.5362 3.79813,3.4725 7.22669,3.2186 -2.36862,-25.0667 -5.87273,-35.2363 -5.87273,-10.2773 -22.02274,-63.1319 c 0,0 -35.23639,-10.2773 -39.64094,-8.8091 -4.40455,1.4682 -120.39099,-1.4682 -120.39099,-1.4682 l -67.53641,4.4046 -14.68183,5.8727 -16.15001,32.3 -7.340914,22.0228 z"
             style="fill:#88aa00;fill-opacity:1;fill-rule:evenodd;stroke:#000000;stroke-width:3;stroke-linecap:round;stroke-linejoin:round;stroke-miterlimit:4;stroke-dasharray:none;stroke-opacity:1" />
          <path
             style="fill:#635b5b;fill-opacity:1;fill-rule:evenodd;stroke:#000000;stroke-width:2.55555558;stroke-linecap:round;stroke-linejoin:round;stroke-miterlimit:4;stroke-dasharray:none;stroke-opacity:1"
             d="m 371.16259,1546.4752 2.60643,5.8645 c 0,0 3.58385,8.1452 5.21287,8.1452 l 10.09995,0 0.6516,-10.7516 -2.60644,-8.1451 -13.03218,-3.9097 -4.23545,3.2581 z"
             id="path4515"
             inkscape:connector-curvature="0"
             sodipodi:nodetypes="ccscccccc" />
          <path
             sodipodi:nodetypes="ccsccsc"
             inkscape:connector-curvature="0"
             id="ellipse4378"
             transform="translate(178.18266,1191.0366)"
             d="m 73.308594,371.53516 c -5.564228,-0.2314 -7.518777,0.29409 -12.72461,0.375 -9.809517,6.7e-4 -17.761607,22.31706 -17.761718,49.8457 -2.75e-4,27.5294 9.448899,46.85305 19.258689,46.85372 5.310976,-0.51999 6.846042,-0.32187 12.72461,-0.375 9.809518,-6.7e-4 16.264638,-19.32313 16.264747,-46.85177 2.73e-4,-27.5294 -7.951929,-49.84698 -17.761718,-49.84765 z"
             style="opacity:1;fill:#333333;fill-opacity:1;fill-rule:evenodd;stroke:#000000;stroke-width:3;stroke-linecap:round;stroke-linejoin:round;stroke-miterlimit:4;stroke-dasharray:none;stroke-opacity:1" />
          <path
             sodipodi:nodetypes="cccccccccccccsccccc"
             inkscape:connector-curvature="0"
             id="path4358"
             d="m 186.99176,1562.5007 -160.03193,-5.8727 -5.87273,4.4045 -1.46819,10.2773 0,10.2773 0,14.6818 16.15002,17.6182 30.83184,5.8727 101.30461,1.4682 26.42729,-1.4682 17.6182,-2.9363 4.40454,-1.4682 7.59625,-5.6174 c 0,0 2.4712,-1.1125 2.5406,-8.5984 l 3.40235,-16.5459 -1.79373,-11.8156 -6.59406,-9.6708 -8.08777,-3.5429 z"
             style="fill:#635b5b;fill-opacity:1;fill-rule:evenodd;stroke:#000000;stroke-width:3;stroke-linecap:round;stroke-linejoin:round;stroke-miterlimit:4;stroke-dasharray:none;stroke-opacity:1" />
          <path
             inkscape:connector-curvature="0"
             id="path4360"
             d="m 62.19622,1608.0144 -16.15001,5.8727 1.46818,7.3409 c 0,0 -5.87273,1.4682 5.87273,2.9364 11.74546,1.4682 17.61819,4.4045 17.61819,4.4045 l 77.81369,0 c 0,0 22.02275,1.4682 27.89548,0 5.87273,-1.4682 20.55456,-2.9363 20.55456,-2.9363 l 2.93636,-1.4682 -4.40455,-8.8091 c 0,0 5.87273,2.9363 -4.40455,0 -10.27727,-2.9364 -35.23638,-1.4682 -35.23638,-1.4682 l -30.83184,0 -30.831841,1.4682 -14.681828,-1.4682 z"
             style="fill:#999999;fill-rule:evenodd;stroke:#000000;stroke-width:3;stroke-linecap:round;stroke-linejoin:round;stroke-miterlimit:4;stroke-dasharray:none;stroke-opacity:1" />
          <path
             sodipodi:nodetypes="ccccc"
             inkscape:connector-curvature="0"
             id="path4362"
             d="m 85.44142,1569.8416 -0.856337,28.8747 57.380747,2.0801 1.17826,-29.5727 z"
             style="fill:#ffdd55;fill-rule:evenodd;stroke:#000000;stroke-width:2;stroke-linecap:round;stroke-linejoin:round;stroke-miterlimit:4;stroke-dasharray:none;stroke-opacity:1" />
          <path
             sodipodi:nodetypes="ccccc"
             inkscape:connector-curvature="0"
             id="path4364"
             d="m 95.964422,1529.2643 -13.962131,21.3606 74.157629,0.6622 -14.68183,-21.6198 z"
             style="fill:#635b5b;fill-opacity:1;fill-rule:evenodd;stroke:#000000;stroke-width:3;stroke-linecap:round;stroke-linejoin:round;stroke-miterlimit:4;stroke-dasharray:none;stroke-opacity:1" />
          <path
             sodipodi:nodetypes="cccccccccccccc"
             inkscape:connector-curvature="0"
             id="path4366"
             d="m 113.21526,1429.7524 -9.17645,14.4374 -5.872732,14.6818 -6.606205,14.07 -2.936365,11.7454 1.468182,4.4046 176.18194,2.9363 -1.46818,-5.8727 0,-32.3 0,-24.9591 -38.17276,-4.4046 -39.64093,1.4682 -60.1955,1.4682 z"
             style="fill:#beefee;fill-opacity:1;fill-rule:evenodd;stroke:#000000;stroke-width:3;stroke-linecap:round;stroke-linejoin:round;stroke-miterlimit:4;stroke-dasharray:none;stroke-opacity:1" />
          <path
             sodipodi:nodetypes="cccsccccc"
             inkscape:connector-curvature="0"
             id="path4368"
             d="m 276.55091,1436.237 1.46818,33.7682 -1.46818,13.2136 c 0,0 -1.46818,14.6819 4.40455,11.7455 5.87273,-2.9364 40.14826,-4.1224 40.14826,-4.1224 l -6.38006,-34.0504 0,-23.4909 c -8.96805,-0.8603 -24.95911,1.4682 -24.95911,1.4682 z"
             style="fill:#beefee;fill-opacity:1;fill-rule:evenodd;stroke:#000000;stroke-width:3;stroke-linecap:round;stroke-linejoin:round;stroke-miterlimit:4;stroke-dasharray:none;stroke-opacity:1" />
          <path
             sodipodi:nodetypes="ccccccccc"
             inkscape:connector-curvature="0"
             id="path4370"
             d="m 320.1304,1433.4411 6.33873,54.1823 7.34091,2.9363 10.27728,-1.4681 8.8091,-1.4682 -4.40455,-19.0864 2.93636,-11.7455 -7.34091,-22.0227 z"
             style="fill:#beefee;fill-opacity:1;fill-rule:evenodd;stroke:#000000;stroke-width:3;stroke-linecap:round;stroke-linejoin:round;stroke-miterlimit:4;stroke-dasharray:none;stroke-opacity:1" />
          <path
             sodipodi:nodetypes="ccccccccccccc"
             inkscape:connector-curvature="0"
             id="path4372"
             d="m 276.65594,1489.3788 4.51836,-8.6134 2.51934,-2.3389 5.77802,-1.2254 10.59761,1.2254 5.76791,1.8464 0,8.0044 -1.21067,3.1042 -6.4943,0.4951 -6.24933,5.9044 -7.38963,1.101 -9.29577,-3.2365 z"
             style="fill:#88aa00;fill-opacity:1;fill-rule:evenodd;stroke:#000000;stroke-width:3;stroke-linecap:round;stroke-linejoin:round;stroke-miterlimit:4;stroke-dasharray:none;stroke-opacity:1" />
          <ellipse
             ry="31.062143"
             rx="11.414402"
             cy="1613.6281"
             cx="252.09558"
             id="path4381"
             style="opacity:1;fill:#999999;fill-opacity:1;fill-rule:evenodd;stroke:#000000;stroke-width:3;stroke-linecap:round;stroke-linejoin:round;stroke-miterlimit:4;stroke-dasharray:none;stroke-opacity:1" />
          <ellipse
             style="opacity:1;fill:#999999;fill-opacity:1;fill-rule:evenodd;stroke:#000000;stroke-width:3;stroke-linecap:round;stroke-linejoin:round;stroke-miterlimit:4;stroke-dasharray:none;stroke-opacity:1"
             id="ellipse4385"
             cx="367.45505"
             cy="1589.9935"
             rx="10.033383"
             ry="24.527897" />
          <path
             sodipodi:nodetypes="ccccccscccccc"
             inkscape:connector-curvature="0"
             id="path4391"
             d="m 48.645503,1501.5145 -5.190213,10.6938 0.74849,6.7363 5.61364,2.994 16.09244,0.3742 112.64704,1.1227 c 0,0 8.98183,0.3743 11.60153,0.7485 2.6197,0.3742 16.09243,-5.2394 16.09243,-5.2394 l 7.8591,-8.9818 8.60758,-6.3621 13.84698,-6.7364 13.47274,-4.4909 0,0"
             style="fill:none;fill-rule:evenodd;stroke:#000000;stroke-width:3;stroke-linecap:round;stroke-linejoin:round;stroke-miterlimit:4;stroke-dasharray:none;stroke-opacity:1" />
          <ellipse
             style="opacity:1;fill:#e6e6e6;fill-opacity:1;fill-rule:evenodd;stroke:#000000;stroke-width:3;stroke-linecap:round;stroke-linejoin:round;stroke-miterlimit:4;stroke-dasharray:none;stroke-opacity:1"
             id="ellipse4393"
             cx="49.81741"
             cy="1530.5463"
             rx="12.997767"
             ry="18.237165" />
          <ellipse
             ry="18.821072"
             rx="16.201372"
             cy="1532.7917"
             cx="198.39175"
             id="ellipse4395"
             style="opacity:1;fill:#e6e6e6;fill-opacity:1;fill-rule:evenodd;stroke:#000000;stroke-width:3;stroke-linecap:round;stroke-linejoin:round;stroke-miterlimit:4;stroke-dasharray:none;stroke-opacity:1" />
          <path
             sodipodi:nodetypes="cccc"
             inkscape:connector-curvature="0"
             id="path4397"
             d="m 321.26452,1491.2253 12.45773,19.8701 -1.13429,13.0612 -7.00808,81.0428"
             style="fill:none;fill-rule:evenodd;stroke:#000000;stroke-width:3;stroke-linecap:round;stroke-linejoin:round;stroke-miterlimit:4;stroke-dasharray:none;stroke-opacity:1" />
          <path
             inkscape:connector-curvature="0"
             id="path4399"
             d="m 315.56221,1510.2188 5.67685,-1.1354 -1.13537,-3.4061 -4.54148,0 z"
             style="fill:#999999;fill-opacity:1;fill-rule:evenodd;stroke:#000000;stroke-width:1.66666663;stroke-linecap:round;stroke-linejoin:round;stroke-miterlimit:4;stroke-dasharray:none;stroke-opacity:1" />
          <path
             sodipodi:nodetypes="cccc"
             inkscape:connector-curvature="0"
             id="path4401"
             d="m 353.15624,1486.8828 9.87754,9.0308 2.53994,9.8776 5.55713,44.48"
             style="fill:none;fill-rule:evenodd;stroke:#000000;stroke-width:3;stroke-linecap:round;stroke-linejoin:round;stroke-miterlimit:4;stroke-dasharray:none;stroke-opacity:1" />
          <path
             style="fill:#999999;fill-opacity:1;fill-rule:evenodd;stroke:#000000;stroke-width:1.66666663;stroke-linecap:round;stroke-linejoin:round;stroke-miterlimit:4;stroke-dasharray:none;stroke-opacity:1"
             d="m 356.14402,1507.1315 5.70602,-1.0719 -1.1412,-3.2155 -4.56482,0 z"
             id="path4403"
             inkscape:connector-curvature="0" />
          <path
             inkscape:connector-curvature="0"
             id="path4405"
             d="m 274.94875,1491.3216 13.70139,120.7436 0,0"
             style="fill:none;fill-rule:evenodd;stroke:#000000;stroke-width:3;stroke-linecap:round;stroke-linejoin:round;stroke-miterlimit:4;stroke-dasharray:none;stroke-opacity:1" />
          <g
             id="text4407"
             style="font-style:normal;font-weight:normal;font-size:10.13802814px;line-height:125%;font-family:sans-serif;letter-spacing:0px;word-spacing:0px;fill:#181818;fill-opacity:1;stroke:none;stroke-width:1px;stroke-linecap:butt;stroke-linejoin:miter;stroke-opacity:1"
             transform="matrix(0.93154076,0.04334407,-0.049841,1.0711713,74.021123,-2.7744447)">
            <path
               inkscape:connector-curvature="0"
               id="path4441"
               d="m 114.62322,1470.7483 c -0.57697,0 -1.15394,0 -1.73091,0 -0.0712,0.5759 1.11146,-0.102 1.12401,0.3901 0,0.6441 0,1.2882 0,1.9323 -0.91551,0 -1.83103,0 -2.74654,0 0,-0.6998 0,-1.3996 0,-2.0994 0.30403,-0.01 1.52615,0.088 0.97546,-0.223 -0.4683,-0.056 -1.16064,0.112 -1.48946,-0.084 -0.29228,-0.7701 -0.78184,0.7334 -0.24772,0.3561 0.96176,0.3832 0.27285,1.9026 -0.0946,0.5893 -0.23619,-0.039 -0.0448,0.9938 -0.10664,1.3917 -0.0569,0.4646 0.11318,1.1561 -0.0836,1.4808 -0.70274,0.1796 -0.29012,-0.7561 -0.39948,-1.1699 -0.054,-0.3456 0.12598,-1.7906 -0.12676,-1.2025 -0.0447,1.0233 -1.38922,0.8409 -0.54826,0.016 0.64272,-0.8932 0.79154,-1.6975 -0.0867,-1.7869 -0.17948,-0.6707 1.09141,0.1089 0.76172,-0.712 -0.24633,-0.5144 0.31976,-1.2528 0.48304,-0.5608 0.003,0.518 -0.17705,1.2194 0.58494,0.9786 -0.0931,0.362 1.15541,0.4353 0.92922,-0.093 -0.40857,0.1472 -1.10442,-0.5086 -0.3191,-0.5296 0.44887,0.1403 0.33752,-1.078 0.80214,-0.3779 -0.26549,0.5819 1.01971,0.5549 0.70909,-0.04 0.53825,-0.6233 0.30249,0.5947 0.81729,0.4178 0.72593,-0.076 0.24021,0.7826 -0.32463,0.4644 -0.21449,0.6683 0.67837,0.312 1.0767,0.3995 0.0968,0.028 0.0122,0.3547 0.0408,0.4613 z m -1.61014,-0.4613 c 0.28572,-0.5856 -0.99784,-0.5937 -0.70909,0 0.23636,0 0.47273,0 0.70909,0 z m 0.54497,1.4894 c 0.28405,-0.6272 -1.09043,-0.3602 -0.58218,0 0.19406,0 0.38812,0 0.58218,0 z m -1.14568,0 c 0.28395,-0.6265 -1.08414,-0.3605 -0.57598,0 0.192,0 0.38399,0 0.57598,0 z m 1.14568,0.8298 c 0.29878,-0.681 -1.10361,-0.4293 -0.58218,0 0.19406,0 0.38812,0 0.58218,0 z m -1.14568,0 c 0.29839,-0.6803 -1.09721,-0.4294 -0.57598,0 0.192,0 0.38399,0 0.57598,0 z m 0,0.7493 c -0.21474,0.5946 -1.96274,1.4266 -1.63932,0.6476 0.64412,-0.064 1.05291,-1.1547 1.63932,-0.6476 z m 2.09009,0.7618 c -0.36137,0.7183 -1.64255,-0.7214 -1.40179,-0.8542 0.43725,-0.1756 1.06271,0.5762 1.40179,0.8542 z"
               style="font-size:6.34148979px;text-align:center;text-anchor:middle;fill:#181818;fill-opacity:1" />
            <path
               inkscape:connector-curvature="0"
               id="path4443"
               d="m 120.87182,1472.7208 c -1.37688,0 -2.75376,0 -4.13064,0 -0.31873,-0.8234 0.91019,-0.099 0.63477,-0.8792 0,-0.7979 0,-1.5959 0,-2.3938 1.07923,0.2571 2.27352,-0.6862 3.1285,-0.431 -0.091,0.7023 -1.97609,0.7365 -2.62069,0.9791 -0.22531,0.7433 0.64715,0.3888 1.08632,0.4676 0.55753,0 1.11507,0 1.6726,0 0.28159,0.7791 -0.71444,0.2805 -0.94441,0.548 0.12408,0.4033 -0.30416,1.3589 0.33425,1.2479 0.44504,0.085 1.02957,-0.283 0.8393,0.4614 z m -1.65659,-0.4614 c -0.12244,-0.405 0.27172,-1.3265 -0.25069,-1.3315 -0.46442,0.063 -1.31302,-0.2582 -1.08078,0.5014 -0.12163,0.649 0.049,1.0057 0.75206,0.8301 0.19314,0 0.38627,0 0.57941,0 z m -2.04674,-2.5112 c -0.41963,0.7744 -1.21638,-0.6214 -1.32138,-0.6903 0.38399,-0.5164 1.05701,0.4063 1.32138,0.6903 z m -0.39944,1.2912 c -0.38449,0.8386 -1.24774,-0.643 -1.36545,-0.6907 0.39248,-0.5317 1.08716,0.428 1.36545,0.6907 z m -0.0155,0.9011 c -0.17359,0.6725 -0.46444,2.7046 -1.43674,2.087 0.84076,-0.3099 0.59243,-2.7203 1.43674,-2.087 z m 1.75258,1.2385 c -0.53446,0.3921 -1.65201,1.8169 -2.14582,0.8361 0.81939,0.091 1.63337,-1.6637 2.14582,-0.8361 z m 2.57933,0.9042 c -0.60377,0.8866 -1.4959,-1.0121 -2.11064,-0.9342 0.57004,-0.774 1.65128,0.6063 2.11064,0.9342 z"
               style="font-size:6.34148979px;text-align:center;text-anchor:middle;fill:#181818;fill-opacity:1" />
            <path
               inkscape:connector-curvature="0"
               id="path4445"
               d="m 124.90337,1472.5629 c 0.18545,1.5804 -2.40753,2.0748 -3.00354,1.0401 -0.0489,-0.8825 2.26478,0.8662 2.3572,-0.8137 0.44315,-1.819 -2.34476,-0.3824 -2.15899,-1.5002 0,-0.6245 0,-1.249 0,-1.8735 0.9248,0 1.8496,0 2.7744,0 0.24427,0.7592 -0.51956,0.5102 -1.00275,0.5419 -0.37512,0.1277 -1.31705,-0.3115 -1.17404,0.3343 -0.42598,1.4437 1.26975,0.4795 1.90741,1.3468 0.22734,0.2497 0.30413,0.5962 0.30031,0.9243 z"
               style="font-size:6.34148979px;text-align:center;text-anchor:middle;fill:#181818;fill-opacity:1" />
            <path
               inkscape:connector-curvature="0"
               id="path4447"
               d="m 129.01233,1472.7424 c 6.1e-4,1.9369 -3.55145,1.8089 -3.26209,-0.1749 -0.01,-0.7889 1.46248,-0.9417 0.28642,-1.4542 -1.11874,-2.0827 3.31167,-2.5254 2.80305,-0.3181 -0.33624,0.6971 -1.09158,0.779 -0.0565,1.2536 0.1635,0.1907 0.23128,0.4464 0.22913,0.6936 z m -0.73385,-2.2511 c -0.25273,-1.7256 -2.98815,0.032 -1.15187,0.7023 0.62746,0.4833 1.13757,-0.012 1.15187,-0.7023 z m 0.096,2.31 c -0.33973,-2.039 -3.28738,-0.3048 -1.39804,0.802 0.5813,0.2233 1.43871,-0.074 1.39804,-0.802 z"
               style="font-size:6.34148979px;text-align:center;text-anchor:middle;fill:#181818;fill-opacity:1" />
            <path
               inkscape:connector-curvature="0"
               id="path4449"
               d="m 132.75282,1474.0275 c -0.83191,0 -1.66381,0 -2.49572,0 -0.28193,-0.7866 0.7214,-0.288 0.95989,-0.5543 0,-1.0022 0,-2.0044 0,-3.0066 -0.43203,0.1387 -1.4422,-0.096 -0.75785,-0.4289 0.62929,0.014 1.44224,-1.3617 1.35238,-0.051 0,1.1902 0,2.3803 0,3.5705 0.44716,0.093 1.15337,-0.2988 0.9413,0.4707 z"
               style="font-size:6.34148979px;text-align:center;text-anchor:middle;fill:#181818;fill-opacity:1" />
            <path
               inkscape:connector-curvature="0"
               id="path4451"
               d="m 103.92907,1482.6496 c 1.31985,-0.7423 3.47412,0.3661 2.83447,2.0261 -0.58278,1.4097 -2.32241,1.569 -3.65112,1.5115 -0.80569,-1.3517 0.98501,-0.458 1.76055,-0.8114 1.8543,-0.1444 1.46146,-2.82 -0.41816,-2.2601 -1.28589,-0.3394 -2.1753,1.7756 -3.06057,1.2695 -0.003,-0.8585 1.94875,-1.7869 2.59771,-2.7367 0.91501,-0.9442 -2.33839,0.5762 -2.12098,-0.5878 0.42093,-0.6655 2.40233,-0.1757 3.3942,-0.6016 1.0684,0.3197 -0.57252,1.2635 -0.95609,1.7556 -0.11543,0.1427 -0.31362,0.2943 -0.38001,0.4349 z"
               style="font-size:7.5px;fill:#181818;fill-opacity:1" />
            <path
               inkscape:connector-curvature="0"
               id="path4453"
               d="m 114.17268,1486.114 c -1.64017,0 -3.28034,0 -4.92051,0 0.1278,-0.3848 -0.28035,-1.3055 0.25069,-1.2871 0.39249,-0.1256 1.31316,0.2769 1.30368,-0.2507 0,-1.215 0,-2.4301 0,-3.6451 -0.51812,0 -1.03625,0 -1.55437,0 0.0482,-0.5908 -0.28028,-1.5114 0.68313,-1.2429 1.02873,-0.1392 1.00024,-1.3421 2.16547,-0.9653 0.76176,-0.2434 0.52595,0.5107 0.55219,1.0028 0,1.7002 0,3.4005 0,5.1008 0.50657,0 1.01315,0 1.51972,0 0,0.4292 0,0.8583 0,1.2875 z"
               style="font-weight:bold;text-align:center;text-anchor:middle;fill:#181818;fill-opacity:1" />
            <path
               inkscape:connector-curvature="0"
               id="path4455"
               d="m 121.8455,1486.114 c -1.92893,0 -3.85786,0 -5.78679,0 9.6e-4,-0.6825 -0.17829,-1.451 0.66333,-1.7128 1.04768,-0.9016 2.4253,-1.6991 2.82069,-3.1056 0.11729,-1.8861 -2.34865,-1.228 -3.29096,-0.5972 0,-0.5462 0,-1.0923 0,-1.6385 1.52494,-0.5325 3.61674,-0.8745 4.84285,0.4437 1.02354,1.4295 -0.0219,3.2291 -1.23198,4.1511 -0.67273,0.5866 -1.89903,1.246 -0.40964,1.0485 0.7975,0 1.595,0 2.3925,0 0,0.4703 0,0.9405 0,1.4108 z"
               style="font-weight:bold;text-align:center;text-anchor:middle;fill:#181818;fill-opacity:1" />
            <path
               inkscape:connector-curvature="0"
               id="path4457"
               d="m 126.67196,1483.5498 c -1.259,0 -2.51801,0 -3.77701,0 0.0621,-0.441 -0.12032,-1.1265 0.0836,-1.4257 1.23115,0 2.4623,0 3.69345,0 0,0.4752 0,0.9505 0,1.4257 z"
               style="font-weight:bold;text-align:center;text-anchor:middle;fill:#181818;fill-opacity:1" />
            <path
               inkscape:connector-curvature="0"
               id="path4459"
               d="m 133.20128,1482.6587 c 1.30558,1.2136 0.039,3.425 -1.5819,3.5168 -1.19185,0.1387 -2.85343,0.2174 -3.70492,-0.5405 0.0598,-0.4519 -0.11716,-1.1406 0.0836,-1.4516 1.06858,0.623 3.93314,1.3143 3.76522,-0.7098 -0.2923,-1.1637 -2.42861,0.1653 -2.12611,-1.1418 -0.31097,-1.0287 0.6999,-0.6708 1.37863,-0.7978 1.69881,-0.6768 -0.32807,-2.0843 -1.38358,-1.4118 -0.86805,0.3411 -1.82585,0.963 -1.50486,-0.3874 -0.31872,-1.1382 1.26147,-0.9268 1.9841,-1.1234 1.25777,-0.097 3.16994,0.057 3.4141,1.5996 0.18203,0.9363 -0.6241,1.7539 -1.37368,2.007 0.37701,0.059 0.75746,0.1857 1.04944,0.4407 z"
               style="font-weight:bold;text-align:center;text-anchor:middle;fill:#181818;fill-opacity:1" />
            <path
               sodipodi:nodetypes="ccccccccccccccccc"
               inkscape:connector-curvature="0"
               id="path4461"
               d="m 141.23547,1484.4161 c -0.449,0.053 -1.25102,-0.2468 -1.00489,0.5014 -0.12509,0.3917 0.1225,1.4203 -0.51834,1.2963 -0.46527,-0.057 -0.97288,0.033 -1.29839,-0.164 l 0,-1.6341 -3.5691,0 c 0.0787,-0.6047 -0.22739,-1.3452 0.3148,-1.7862 l 3.1355,-3.8868 1.93553,0 0,4.3265 c 0.449,0.053 1.25102,-0.2468 1.00489,0.5014 l 0,0.8451 z m -2.82162,-1.3465 0,-2.6632 c -0.71448,0.8877 -1.42896,1.7755 -2.14344,2.6632 z"
               style="font-weight:bold;text-align:center;text-anchor:middle;fill:#181818;fill-opacity:1" />
          </g>
        </g>
      </g>
      <text
         xml:space="preserve"
         style="font-style:normal;font-weight:normal;font-size:4.44444418px;line-height:125%;font-family:sans-serif;letter-spacing:0px;word-spacing:0px;fill:#88aa00;fill-opacity:1;stroke:none;stroke-width:1px;stroke-linecap:butt;stroke-linejoin:miter;stroke-opacity:1;"
         x="18.118896"
         y="1701.7634"
         id="text4574"
         sodipodi:linespacing="125%"><tspan
           sodipodi:role="line"
           id="tspan4576"
           x="18.118896"
           y="1701.7634"
           style="font-style:normal;font-variant:normal;font-weight:normal;font-stretch:normal;font-size:20px;font-family:Superclarendon;-inkscape-font-specification:Superclarendon;fill:#88aa00;fill-opacity:1;">made by <tspan
   style="font-weight:bold;fill:#88aa00;fill-opacity:1;"
   id="tspan4578">j4p4n</tspan> on <tspan
   style="font-weight:bold;fill:#88aa00;fill-opacity:1;"
   id="tspan4580">openclipart.org</tspan></tspan></text>
    </g>
  </g>
</svg>
